<?xml version="1.0" encoding="UTF-8"?>
<svg xmlns="http://www.w3.org/2000/svg" xmlns:xlink="http://www.w3.org/1999/xlink" viewBox="0 0 153.11 194.77">
  <defs>
    <style>
      .cls-1 {
        fill: url(#radial-gradient);
        mix-blend-mode: multiply;
      }

      .cls-2 {
        fill: url(#linear-gradient);
      }

      .cls-3 {
        isolation: isolate;
      }
    </style>
    <linearGradient id="linear-gradient" x1="20.56" y1="89.43" x2="132.72" y2="89.43" gradientUnits="userSpaceOnUse">
      <stop offset="0" stop-color="#fff"/>
      <stop offset="1" stop-color="#f3f4f5"/>
    </linearGradient>
    <radialGradient id="radial-gradient" cx="76.74" cy="16.06" fx="76.74" fy="16.06" r="185.74" gradientUnits="userSpaceOnUse">
      <stop offset="0" stop-color="#ffe99e"/>
      <stop offset=".64" stop-color="#bc9332"/>
    </radialGradient>
  </defs>
  <g class="cls-3">
    <g id="Layer_2" data-name="Layer 2">
      <g id="Layer_1-2" data-name="Layer 1">
        <path class="cls-2" d="M125.92,115.93c1.32-2.95,6.81-18.49,6.81-29.33,0-7.86-2.71-9.62-2.71-9.62-32.85-21.95-44.47-44.6-48.56-58.28-.3-1.05-.58-2.07-.81-3.01-.78-3.12-1.12-5.62-1.29-7.32-.07-.81-.1-1.42-.1-1.86-.03-.37.14-.74.44-1.02.51-.44,1.29-1.32,1.29-2.54,0-1.59-2.2-2.44-2.78-2.64,0,0-.71-.3-1.46-.3h-.2c-.74,0-1.46.3-1.46.3-.58.2-2.78,1.05-2.78,2.64,0,1.22.78,2.1,1.29,2.54.3.27.47.64.44,1.02,0,.44-.03,1.05-.1,1.86-.17,1.69-.51,4.2-1.29,7.32-.24.95-.51,1.96-.81,3.01-4.1,13.68-15.71,36.34-48.56,58.28,0,0-2.71,1.76-2.71,9.62,0,10.84,5.49,26.38,6.81,29.33.07.2.14.41.1.61l-.2,25.02,15.48,8.97,1.02-35.39s0-2.71,6.64-4.84c.85-.27,10.06-1.96,10.06-1.96,2.4-.24,5.15-.44,8.3-.54v65.69l7.89,5.37,7.89-5.37v-65.69c3.15.1,5.89.3,8.3.54,0,0,9.21,1.69,10.06,1.96,6.64,2.13,6.64,4.84,6.64,4.84l1.02,35.01,15.51-8.94-.24-24.68c-.03-.2.03-.41.1-.61ZM76.64,52.83c2.2,0,4,1.79,4,4s-1.8,3.96-4,3.96-4-1.76-4-3.96,1.79-4,4-4ZM76.64,83.04c-22.08.17-40.81,2.07-48.26,5.96-.17-2.1.44-4.91,2.34-8.67,0,0,41.55-27.84,44.37-56.56v27.19c-2.57.68-4.5,3.05-4.5,5.86,0,3.32,2.71,6.03,6.06,6.03s6.06-2.71,6.06-6.03c0-2.81-1.93-5.18-4.5-5.86v-27.19c2.81,28.72,44.37,56.56,44.37,56.56,1.9,3.76,2.51,6.57,2.34,8.67-7.45-3.89-26.18-5.79-48.26-5.96Z"/>
        <path class="cls-1" d="M142.34,59.3l-47.92-27.67c3.73,6.57,9.04,13.82,16.59,21.34l26.25,15.14c3.52,2.03,5.69,5.79,5.69,9.82v63.57c0,4.03-2.17,7.82-5.69,9.82l-55.03,31.8c-3.49,2-7.86,2-11.35,0l-55.03-31.8c-3.52-2-5.69-5.79-5.69-9.82v-63.57c0-4.03,2.17-7.79,5.69-9.82l26.59-15.34c7.52-7.48,12.8-14.7,16.46-21.27L10.77,59.3c-6.64,3.83-10.77,10.97-10.77,18.63v63.57c0,7.65,4.13,14.8,10.77,18.63l55.03,31.8c3.32,1.9,7.04,2.84,10.77,2.84s7.42-.95,10.74-2.88l55.03-31.77c6.64-3.83,10.77-10.97,10.77-18.63v-63.57c0-7.65-4.13-14.8-10.77-18.63Z"/>
      </g>
    </g>
  </g>
</svg>